<svg xmlns="http://www.w3.org/2000/svg" version="1.1" xmlns:xlink="http://www.w3.org/1999/xlink" xmlns:svgjs="http://svgjs.dev/svgjs" viewBox="0 0 1422 800"><g shape-rendering="crispEdges"><g transform="translate(425 75)"><use xlink:href="#SvgjsSymbol1021" x="450" y="225" fill="hsl(344, 55%, 49%)"></use><use xlink:href="#SvgjsSymbol1022" x="450" y="225" fill="#f96b8a"></use><use xlink:href="#SvgjsSymbol1023" x="450" y="225" fill="#8c0034"></use></g><g transform="translate(425 75)"><use xlink:href="#SvgjsSymbol1036" x="375" y="225" fill="hsl(53, 99%, 46%)"></use><use xlink:href="#SvgjsSymbol1037" x="375" y="225" fill="#ffff50"></use><use xlink:href="#SvgjsSymbol1038" x="375" y="225" fill="#b29d00"></use></g><g transform="translate(425 75)"><use xlink:href="#SvgjsSymbol1036" x="525" y="187.5" fill="hsl(187, 41%, 56%)"></use><use xlink:href="#SvgjsSymbol1037" x="525" y="187.5" fill="#94e4ef"></use><use xlink:href="#SvgjsSymbol1038" x="525" y="187.5" fill="#2b828d"></use></g><g transform="translate(425 75)"><use xlink:href="#SvgjsSymbol1036" x="637.5" y="300" fill="hsl(94, 100%, 38%)"></use><use xlink:href="#SvgjsSymbol1037" x="637.5" y="300" fill="#8bf64a"></use><use xlink:href="#SvgjsSymbol1038" x="637.5" y="300" fill="#029100"></use></g><g transform="translate(425 75)"><use xlink:href="#SvgjsSymbol1036" x="525" y="412.5" fill="hsl(94, 100%, 38%)"></use><use xlink:href="#SvgjsSymbol1037" x="525" y="412.5" fill="#8bf64a"></use><use xlink:href="#SvgjsSymbol1038" x="525" y="412.5" fill="#029100"></use></g><g transform="translate(425 75)"><use xlink:href="#SvgjsSymbol1036" x="356.25" y="375" fill="hsl(349, 52%, 27%)"></use><use xlink:href="#SvgjsSymbol1037" x="356.25" y="375" fill="#9a4d57"></use><use xlink:href="#SvgjsSymbol1038" x="356.25" y="375" fill="#3a0003"></use></g><g transform="translate(425 75)"><use xlink:href="#SvgjsSymbol1036" x="487.5" y="300" fill="hsl(155, 38%, 40%)"></use><use xlink:href="#SvgjsSymbol1037" x="487.5" y="300" fill="#6fbe9a"></use><use xlink:href="#SvgjsSymbol1038" x="487.5" y="300" fill="#025f41"></use></g><g transform="translate(425 75)"><use xlink:href="#SvgjsSymbol1036" x="675" y="206.25" fill="hsl(92, 32%, 85%)"></use><use xlink:href="#SvgjsSymbol1037" x="675" y="206.25" fill="#ffffff"></use><use xlink:href="#SvgjsSymbol1038" x="675" y="206.25" fill="#a7b39c"></use></g><g transform="translate(425 75)"><use xlink:href="#SvgjsSymbol1036" x="450" y="187.5" fill="hsl(106, 76%, 49%)"></use><use xlink:href="#SvgjsSymbol1037" x="450" y="187.5" fill="#87ff5a"></use><use xlink:href="#SvgjsSymbol1038" x="450" y="187.5" fill="#00a900"></use></g><g transform="translate(425 75)"><use xlink:href="#SvgjsSymbol1036" x="600" y="225" fill="hsl(218, 89%, 43%)"></use><use xlink:href="#SvgjsSymbol1037" x="600" y="225" fill="#6080ff"></use><use xlink:href="#SvgjsSymbol1038" x="600" y="225" fill="#002d9d"></use></g><g transform="translate(425 75)"><use xlink:href="#SvgjsSymbol1036" x="412.5" y="318.75" fill="hsl(8, 86%, 32%)"></use><use xlink:href="#SvgjsSymbol1037" x="412.5" y="318.75" fill="#d05135"></use><use xlink:href="#SvgjsSymbol1038" x="412.5" y="318.75" fill="#640000"></use></g><g transform="translate(425 75)"><use xlink:href="#SvgjsSymbol1036" x="637.5" y="356.25" fill="hsl(331, 70%, 31%)"></use><use xlink:href="#SvgjsSymbol1037" x="637.5" y="356.25" fill="#b94c79"></use><use xlink:href="#SvgjsSymbol1038" x="637.5" y="356.25" fill="#540025"></use></g><g transform="translate(425 75)"><use xlink:href="#SvgjsSymbol1039" x="487.5" y="387.5" fill="hsl(227, 63%, 35%)"></use><use xlink:href="#SvgjsSymbol1040" x="487.5" y="387.5" fill="#5a63c2"></use><use xlink:href="#SvgjsSymbol1041" x="487.5" y="387.5" fill="#001462"></use></g><g transform="translate(425 75)"><use xlink:href="#SvgjsSymbol1039" x="412.5" y="337.5" fill="hsl(35, 45%, 58%)"></use><use xlink:href="#SvgjsSymbol1040" x="412.5" y="337.5" fill="#f8cd92"></use><use xlink:href="#SvgjsSymbol1041" x="412.5" y="337.5" fill="#916e38"></use></g><g transform="translate(425 75)"><use xlink:href="#SvgjsSymbol1039" x="450" y="275" fill="hsl(32, 54%, 57%)"></use><use xlink:href="#SvgjsSymbol1040" x="450" y="275" fill="#ffc684"></use><use xlink:href="#SvgjsSymbol1041" x="450" y="275" fill="#99672a"></use></g><g transform="translate(425 75)"><use xlink:href="#SvgjsSymbol1039" x="562.5" y="275" fill="hsl(32, 54%, 57%)"></use><use xlink:href="#SvgjsSymbol1040" x="562.5" y="275" fill="#ffc684"></use><use xlink:href="#SvgjsSymbol1041" x="562.5" y="275" fill="#99672a"></use></g><g transform="translate(425 75)"><use xlink:href="#SvgjsSymbol1039" x="625" y="300" fill="hsl(246, 68%, 45%)"></use><use xlink:href="#SvgjsSymbol1040" x="625" y="300" fill="#7252f5"></use><use xlink:href="#SvgjsSymbol1041" x="625" y="300" fill="#00008f"></use></g><g transform="translate(425 75)"><use xlink:href="#SvgjsSymbol1039" x="587.5" y="387.5" fill="hsl(188, 99%, 68%)"></use><use xlink:href="#SvgjsSymbol1040" x="587.5" y="387.5" fill="#98ffff"></use><use xlink:href="#SvgjsSymbol1041" x="587.5" y="387.5" fill="#00b6cb"></use></g><g transform="translate(425 75)"><use xlink:href="#SvgjsSymbol1054" x="450" y="225" fill="hsl(341, 37%, 53%)"></use><use xlink:href="#SvgjsSymbol1055" x="450" y="225" fill="#e78aa6"></use><use xlink:href="#SvgjsSymbol1056" x="450" y="225" fill="#812d4b"></use></g><g transform="translate(425 75)"><use xlink:href="#SvgjsSymbol1078" x="487.5" y="325" fill="hsl(242, 76%, 28%)"></use><use xlink:href="#SvgjsSymbol1079" x="487.5" y="325" fill="#523bae"></use><use xlink:href="#SvgjsSymbol1080" x="487.5" y="325" fill="#000051"></use></g><g transform="translate(425 75)"><use xlink:href="#SvgjsSymbol1078" x="475" y="237.5" fill="hsl(260, 77%, 53%)"></use><use xlink:href="#SvgjsSymbol1079" x="475" y="237.5" fill="#a05cff"></use><use xlink:href="#SvgjsSymbol1080" x="475" y="237.5" fill="#2400b0"></use></g><g transform="translate(425 75)"><use xlink:href="#SvgjsSymbol1078" x="575" y="237.5" fill="hsl(260, 77%, 53%)"></use><use xlink:href="#SvgjsSymbol1079" x="575" y="237.5" fill="#a05cff"></use><use xlink:href="#SvgjsSymbol1080" x="575" y="237.5" fill="#2400b0"></use></g><g transform="translate(425 75)"><use xlink:href="#SvgjsSymbol1078" x="637.5" y="225" fill="hsl(298, 42%, 32%)"></use><use xlink:href="#SvgjsSymbol1079" x="637.5" y="225" fill="#a25ca3"></use><use xlink:href="#SvgjsSymbol1080" x="637.5" y="225" fill="#440048"></use></g><g transform="translate(425 75)"><use xlink:href="#SvgjsSymbol1078" x="650" y="350" fill="hsl(298, 42%, 32%)"></use><use xlink:href="#SvgjsSymbol1079" x="650" y="350" fill="#a25ca3"></use><use xlink:href="#SvgjsSymbol1080" x="650" y="350" fill="#440048"></use></g><g transform="translate(425 75)"><use xlink:href="#SvgjsSymbol1078" x="587.5" y="425" fill="hsl(222, 30%, 33%)"></use><use xlink:href="#SvgjsSymbol1079" x="587.5" y="425" fill="#68759b"></use><use xlink:href="#SvgjsSymbol1080" x="587.5" y="425" fill="#0e2342"></use></g><g transform="translate(425 75)"><use xlink:href="#SvgjsSymbol1078" x="562.5" y="462.5" fill="hsl(222, 30%, 33%)"></use><use xlink:href="#SvgjsSymbol1079" x="562.5" y="462.5" fill="#68759b"></use><use xlink:href="#SvgjsSymbol1080" x="562.5" y="462.5" fill="#0e2342"></use></g><g transform="translate(425 75)"><use xlink:href="#SvgjsSymbol1078" x="512.5" y="450" fill="hsl(81, 90%, 26%)"></use><use xlink:href="#SvgjsSymbol1079" x="512.5" y="450" fill="#84ae3e"></use><use xlink:href="#SvgjsSymbol1080" x="512.5" y="450" fill="#255100"></use></g><g transform="translate(425 75)"><use xlink:href="#SvgjsSymbol1078" x="425" y="400" fill="hsl(25, 29%, 61%)"></use><use xlink:href="#SvgjsSymbol1079" x="425" y="400" fill="#ebc8ae"></use><use xlink:href="#SvgjsSymbol1080" x="425" y="400" fill="#876953"></use></g><g transform="translate(425 75)"><use xlink:href="#SvgjsSymbol1078" x="650" y="437.5" fill="hsl(124, 78%, 39%)"></use><use xlink:href="#SvgjsSymbol1079" x="650" y="437.5" fill="#5fe454"></use><use xlink:href="#SvgjsSymbol1080" x="650" y="437.5" fill="#008000"></use></g><g transform="translate(425 75)"><use xlink:href="#SvgjsSymbol1090" x="581.25" y="337.5" fill="hsl(153, 66%, 58%)"></use><use xlink:href="#SvgjsSymbol1091" x="581.25" y="337.5" fill="#86ffcc"></use><use xlink:href="#SvgjsSymbol1092" x="581.25" y="337.5" fill="#00a86d"></use></g><g transform="translate(425 75)"><use xlink:href="#SvgjsSymbol1090" x="543.75" y="262.5" fill="hsl(35, 40%, 39%)"></use><use xlink:href="#SvgjsSymbol1091" x="543.75" y="262.5" fill="#bd9868"></use><use xlink:href="#SvgjsSymbol1092" x="543.75" y="262.5" fill="#5b3f13"></use></g><g transform="translate(425 75)"><use xlink:href="#SvgjsSymbol1090" x="431.25" y="337.5" fill="hsl(85, 30%, 71%)"></use><use xlink:href="#SvgjsSymbol1091" x="431.25" y="337.5" fill="#ecfed0"></use><use xlink:href="#SvgjsSymbol1092" x="431.25" y="337.5" fill="#899a70"></use></g><g transform="translate(425 75)"><use xlink:href="#SvgjsSymbol1090" x="656.25" y="262.5" fill="hsl(136, 70%, 37%)"></use><use xlink:href="#SvgjsSymbol1091" x="656.25" y="262.5" fill="#5cd26e"></use><use xlink:href="#SvgjsSymbol1092" x="656.25" y="262.5" fill="#007011"></use></g></g><symbol id="SvgjsSymbol1000"><polygon points="0,12.5 25,0 50,12.5 25,25"></polygon></symbol><symbol id="SvgjsSymbol1001"><polygon points="0,12.5 25,25 25,50 0,37.5"></polygon></symbol><symbol id="SvgjsSymbol1002"><polygon points="25,25 50,12.5 50,37.5 25,50"></polygon></symbol><g></g><symbol id="SvgjsSymbol1003"><polygon points="0,18.75 37.5,0 75,18.75 37.5,37.5"></polygon></symbol><symbol id="SvgjsSymbol1004"><polygon points="0,18.75 37.5,37.5 37.5,75 0,56.25"></polygon></symbol><symbol id="SvgjsSymbol1005"><polygon points="37.5,37.5 75,18.75 75,56.25 37.5,75"></polygon></symbol><symbol id="SvgjsSymbol1006"><polygon points="0,25 50,0 100,25 50,50"></polygon></symbol><symbol id="SvgjsSymbol1007"><polygon points="0,25 50,50 50,100 0,75"></polygon></symbol><symbol id="SvgjsSymbol1008"><polygon points="50,50 100,25 100,75 50,100"></polygon></symbol><symbol id="SvgjsSymbol1009"><polygon points="0,31.25 62.5,0 125,31.25 62.5,62.5"></polygon></symbol><symbol id="SvgjsSymbol1010"><polygon points="0,31.25 62.5,62.5 62.5,125 0,93.75"></polygon></symbol><symbol id="SvgjsSymbol1011"><polygon points="62.5,62.5 125,31.25 125,93.75 62.5,125"></polygon></symbol><symbol id="SvgjsSymbol1012"><polygon points="0,37.5 75,0 150,37.5 75,75"></polygon></symbol><symbol id="SvgjsSymbol1013"><polygon points="0,37.5 75,75 75,150 0,112.5"></polygon></symbol><symbol id="SvgjsSymbol1014"><polygon points="75,75 150,37.5 150,112.5 75,150"></polygon></symbol><symbol id="SvgjsSymbol1015"><polygon points="0,43.75 87.5,0 175,43.75 87.5,87.5"></polygon></symbol><symbol id="SvgjsSymbol1016"><polygon points="0,43.75 87.5,87.5 87.5,175 0,131.25"></polygon></symbol><symbol id="SvgjsSymbol1017"><polygon points="87.5,87.5 175,43.75 175,131.25 87.5,175"></polygon></symbol><symbol id="SvgjsSymbol1018"><polygon points="0,50 100,0 200,50 100,100"></polygon></symbol><symbol id="SvgjsSymbol1019"><polygon points="0,50 100,100 100,200 0,150"></polygon></symbol><symbol id="SvgjsSymbol1020"><polygon points="100,100 200,50 200,150 100,200"></polygon></symbol><symbol id="SvgjsSymbol1021"><polygon points="0,56.25 112.5,0 225,56.25 112.5,112.5"></polygon></symbol><symbol id="SvgjsSymbol1022"><polygon points="0,56.25 112.5,112.5 112.5,225 0,168.75"></polygon></symbol><symbol id="SvgjsSymbol1023"><polygon points="112.5,112.5 225,56.25 225,168.75 112.5,225"></polygon></symbol><symbol id="SvgjsSymbol1024"><polygon points="0,50 100,0 200,50 100,100"></polygon></symbol><symbol id="SvgjsSymbol1025"><polygon points="0,50 100,100 100,200 0,150"></polygon></symbol><symbol id="SvgjsSymbol1026"><polygon points="100,100 200,50 200,150 100,200"></polygon></symbol><symbol id="SvgjsSymbol1027"><polygon points="0,43.75 87.5,0 175,43.75 87.5,87.5"></polygon></symbol><symbol id="SvgjsSymbol1028"><polygon points="0,43.75 87.5,87.5 87.5,175 0,131.25"></polygon></symbol><symbol id="SvgjsSymbol1029"><polygon points="87.5,87.5 175,43.75 175,131.25 87.5,175"></polygon></symbol><symbol id="SvgjsSymbol1030"><polygon points="0,31.25 62.5,0 125,31.25 62.5,62.5"></polygon></symbol><symbol id="SvgjsSymbol1031"><polygon points="0,31.25 62.5,62.5 62.5,125 0,93.75"></polygon></symbol><symbol id="SvgjsSymbol1032"><polygon points="62.5,62.5 125,31.25 125,93.75 62.5,125"></polygon></symbol><symbol id="SvgjsSymbol1033"><polygon points="0,25 50,0 100,25 50,50"></polygon></symbol><symbol id="SvgjsSymbol1034"><polygon points="0,25 50,50 50,100 0,75"></polygon></symbol><symbol id="SvgjsSymbol1035"><polygon points="50,50 100,25 100,75 50,100"></polygon></symbol><symbol id="SvgjsSymbol1036"><polygon points="0,18.75 37.5,0 75,18.75 37.5,37.5"></polygon></symbol><symbol id="SvgjsSymbol1037"><polygon points="0,18.75 37.5,37.5 37.5,75 0,56.25"></polygon></symbol><symbol id="SvgjsSymbol1038"><polygon points="37.5,37.5 75,18.75 75,56.25 37.5,75"></polygon></symbol><symbol id="SvgjsSymbol1039"><polygon points="0,12.5 25,0 50,12.5 25,25"></polygon></symbol><symbol id="SvgjsSymbol1040"><polygon points="0,12.5 25,25 25,50 0,37.5"></polygon></symbol><symbol id="SvgjsSymbol1041"><polygon points="25,25 50,12.5 50,37.5 25,50"></polygon></symbol><symbol id="SvgjsSymbol1042"><polygon points="0,18.75 37.5,0 75,18.75 37.5,37.5"></polygon></symbol><symbol id="SvgjsSymbol1043"><polygon points="0,18.75 37.5,37.5 37.5,75 0,56.25"></polygon></symbol><symbol id="SvgjsSymbol1044"><polygon points="37.5,37.5 75,18.75 75,56.25 37.5,75"></polygon></symbol><symbol id="SvgjsSymbol1045"><polygon points="0,25 50,0 100,25 50,50"></polygon></symbol><symbol id="SvgjsSymbol1046"><polygon points="0,25 50,50 50,100 0,75"></polygon></symbol><symbol id="SvgjsSymbol1047"><polygon points="50,50 100,25 100,75 50,100"></polygon></symbol><symbol id="SvgjsSymbol1048"><polygon points="0,37.5 75,0 150,37.5 75,75"></polygon></symbol><symbol id="SvgjsSymbol1049"><polygon points="0,37.5 75,75 75,150 0,112.5"></polygon></symbol><symbol id="SvgjsSymbol1050"><polygon points="75,75 150,37.5 150,112.5 75,150"></polygon></symbol><symbol id="SvgjsSymbol1051"><polygon points="0,50 100,0 200,50 100,100"></polygon></symbol><symbol id="SvgjsSymbol1052"><polygon points="0,50 100,100 100,200 0,150"></polygon></symbol><symbol id="SvgjsSymbol1053"><polygon points="100,100 200,50 200,150 100,200"></polygon></symbol><symbol id="SvgjsSymbol1054"><polygon points="0,56.25 112.5,0 225,56.25 112.5,112.5"></polygon></symbol><symbol id="SvgjsSymbol1055"><polygon points="0,56.25 112.5,112.5 112.5,225 0,168.75"></polygon></symbol><symbol id="SvgjsSymbol1056"><polygon points="112.5,112.5 225,56.25 225,168.75 112.5,225"></polygon></symbol><symbol id="SvgjsSymbol1057"><polygon points="0,50 100,0 200,50 100,100"></polygon></symbol><symbol id="SvgjsSymbol1058"><polygon points="0,50 100,100 100,200 0,150"></polygon></symbol><symbol id="SvgjsSymbol1059"><polygon points="100,100 200,50 200,150 100,200"></polygon></symbol><symbol id="SvgjsSymbol1060"><polygon points="0,43.75 87.5,0 175,43.75 87.5,87.5"></polygon></symbol><symbol id="SvgjsSymbol1061"><polygon points="0,43.75 87.5,87.5 87.5,175 0,131.25"></polygon></symbol><symbol id="SvgjsSymbol1062"><polygon points="87.5,87.5 175,43.75 175,131.25 87.5,175"></polygon></symbol><symbol id="SvgjsSymbol1063"><polygon points="0,25 50,0 100,25 50,50"></polygon></symbol><symbol id="SvgjsSymbol1064"><polygon points="0,25 50,50 50,100 0,75"></polygon></symbol><symbol id="SvgjsSymbol1065"><polygon points="50,50 100,25 100,75 50,100"></polygon></symbol><symbol id="SvgjsSymbol1066"><polygon points="0,31.25 62.5,0 125,31.25 62.5,62.5"></polygon></symbol><symbol id="SvgjsSymbol1067"><polygon points="0,31.25 62.5,62.5 62.5,125 0,93.75"></polygon></symbol><symbol id="SvgjsSymbol1068"><polygon points="62.5,62.5 125,31.25 125,93.75 62.5,125"></polygon></symbol><symbol id="SvgjsSymbol1069"><polygon points="0,37.5 75,0 150,37.5 75,75"></polygon></symbol><symbol id="SvgjsSymbol1070"><polygon points="0,37.5 75,75 75,150 0,112.5"></polygon></symbol><symbol id="SvgjsSymbol1071"><polygon points="75,75 150,37.5 150,112.5 75,150"></polygon></symbol><symbol id="SvgjsSymbol1072"><polygon points="0,31.25 62.5,0 125,31.25 62.5,62.5"></polygon></symbol><symbol id="SvgjsSymbol1073"><polygon points="0,31.25 62.5,62.5 62.5,125 0,93.75"></polygon></symbol><symbol id="SvgjsSymbol1074"><polygon points="62.5,62.5 125,31.25 125,93.75 62.5,125"></polygon></symbol><symbol id="SvgjsSymbol1075"><polygon points="0,18.75 37.5,0 75,18.75 37.5,37.5"></polygon></symbol><symbol id="SvgjsSymbol1076"><polygon points="0,18.75 37.5,37.5 37.5,75 0,56.25"></polygon></symbol><symbol id="SvgjsSymbol1077"><polygon points="37.5,37.5 75,18.75 75,56.25 37.5,75"></polygon></symbol><symbol id="SvgjsSymbol1078"><polygon points="0,12.5 25,0 50,12.5 25,25"></polygon></symbol><symbol id="SvgjsSymbol1079"><polygon points="0,12.5 25,25 25,50 0,37.5"></polygon></symbol><symbol id="SvgjsSymbol1080"><polygon points="25,25 50,12.5 50,37.5 25,50"></polygon></symbol><symbol id="SvgjsSymbol1081"><polygon points="0,6.25 12.5,0 25,6.25 12.5,12.5"></polygon></symbol><symbol id="SvgjsSymbol1082"><polygon points="0,6.25 12.5,12.5 12.5,25 0,18.75"></polygon></symbol><symbol id="SvgjsSymbol1083"><polygon points="12.5,12.5 25,6.25 25,18.75 12.5,25"></polygon></symbol><symbol id="SvgjsSymbol1084"><polygon points="0,12.5 25,0 50,12.5 25,25"></polygon></symbol><symbol id="SvgjsSymbol1085"><polygon points="0,12.5 25,25 25,50 0,37.5"></polygon></symbol><symbol id="SvgjsSymbol1086"><polygon points="25,25 50,12.5 50,37.5 25,50"></polygon></symbol><symbol id="SvgjsSymbol1087"><polygon points="0,25 50,0 100,25 50,50"></polygon></symbol><symbol id="SvgjsSymbol1088"><polygon points="0,25 50,50 50,100 0,75"></polygon></symbol><symbol id="SvgjsSymbol1089"><polygon points="50,50 100,25 100,75 50,100"></polygon></symbol><symbol id="SvgjsSymbol1090"><polygon points="0,18.75 37.5,0 75,18.75 37.5,37.5"></polygon></symbol><symbol id="SvgjsSymbol1091"><polygon points="0,18.75 37.5,37.5 37.5,75 0,56.25"></polygon></symbol><symbol id="SvgjsSymbol1092"><polygon points="37.5,37.5 75,18.75 75,56.25 37.5,75"></polygon></symbol></svg>