<svg xmlns="http://www.w3.org/2000/svg" version="1.1" xmlns:xlink="http://www.w3.org/1999/xlink" xmlns:svgjs="http://svgjs.dev/svgjs" viewBox="0 0 1422 800"><defs><filter id="uuunion-blur" x="-100%" y="-100%" width="400%" height="400%" color-interpolation-filters="sRGB">
        <feGaussianBlur in="SourceGraphic" stdDeviation="4 4" result="blur"></feGaussianBlur>
        <feDropShadow stdDeviation="29.53846153846154" in="blur" dx="24" dy="24" flood-color="hsl(279, 61%, 48%)" flood-opacity="0.69" x="0%" y="0%" width="100%" height="100%"></feDropShadow>
      </filter><filter id="uuunion-blur2" x="-100%" y="-100%" width="400%" height="400%" color-interpolation-filters="sRGB">
        <feGaussianBlur in="SourceGraphic" stdDeviation="4 4" result="blur"></feGaussianBlur>
        <feDropShadow stdDeviation="29.53846153846154" in="blur" dx="-24" dy="-24" flood-color="hsl(279, 61%, 48%)" flood-opacity="0.69" x="0%" y="0%" width="100%" height="100%"></feDropShadow>
      </filter><linearGradient gradientTransform="rotate(141, 0.5, 0.5)" x1="50%" y1="0%" x2="50%" y2="100%" id="uuunion-grad"><stop stop-color="hsl(187, 52%, 78%)" offset="10%"></stop><stop stop-color="hsl(279, 61%, 48%)" offset="90%"></stop></linearGradient><linearGradient gradientTransform="rotate(152, 0.5, 0.5)" x1="50%" y1="0%" x2="50%" y2="100%" id="uuunion-grad2"><stop stop-color="hsl(187, 52%, 78%)" offset="25%"></stop><stop stop-color="hsl(279, 61%, 48%)" offset="100%"></stop></linearGradient><linearGradient gradientTransform="rotate(131, 0.5, 0.5)" x1="50%" y1="0%" x2="50%" y2="100%" id="uuunion-grad3"><stop stop-color="hsl(187, 52%, 78%)" offset="0%"></stop><stop stop-color="hsl(279, 61%, 48%)" offset="75%"></stop></linearGradient></defs><path d="M-138.93 -86.05Q-125.71 -84.28 -112.5 -82.32 -99.29 -80.26 -86.08 -78.18 -72.87 -76.19 -59.65 -74.36 -46.44 -72.77 -33.23 -71.5 -20.02 -70.59 -6.81 -70.09 6.39 -70.02 19.61 -70.38 32.82 -71.15 46.03 -72.31 59.24 -73.8 72.45 -75.56 85.67 -77.51 98.88 -79.56 112.09 -81.64 125.3 -83.64 138.51 -85.49 151.72 -87.1 164.94 -88.4 178.15 -89.34 191.36 -89.87 204.57 -89.98 217.78 -89.66 231 -88.91 244.21 -87.79 257.42 -86.32 270.63 -84.58 283.84 -82.65 297.06 -80.6 310.27 -78.52 323.48 -76.51 336.69 -74.64 349.9 -73.01 363.11 -71.68 376.33 -70.71 389.54 -70.14 402.75 -70 415.96 -70.29 429.17 -71 442.39 -72.1 455.6 -73.54 468.81 -75.25 482.02 -77.18 495.23 -79.22 508.45 -81.3 521.66 -83.32 534.87 -85.2 548.08 -86.85 561.29 -88.21 574.5 -89.21 587.72 -89.81 600.93 -89.99 614.14 -89.74 627.35 -89.06 640.56 -88 653.78 -86.58 666.99 -84.89 680.2 -82.98 693.41 -80.94 706.62 -78.86 719.84 -76.83 733.05 -74.94 746.26 -73.26 759.47 -71.88 772.68 -70.85 785.9 -70.21 799.11 -70 812.32 -70.21 825.53 -70.85 838.74 -71.89 851.95 -73.28 865.17 -74.96 878.38 -76.85 891.59 -78.88 904.8 -80.96 918.01 -83 931.23 -84.91 944.44 -86.6 957.65 -88.01 970.86 -89.07 984.07 -89.74 997.29 -89.99 1010.5 -89.81 1023.71 -89.2 1036.92 -88.2 1050.13 -86.84 1063.35 -85.18 1076.56 -83.3 1089.77 -81.28 1102.98 -79.2 1116.19 -77.16 1129.41 -75.23 1142.62 -73.52 1155.83 -72.08 1169.04 -70.99 1182.25 -70.28 1195.47 -70 1208.68 -70.15 1221.89 -70.72 1235.1 -71.7 1248.31 -73.03 1261.52 -74.66 1274.74 -76.53 1287.95 -78.54 1301.16 -80.62 1314.37 -82.67 1327.58 -84.61 1340.8 -86.34 1354.01 -87.8 1367.22 -88.93 1380.43 -89.66 1393.64 -89.98 1406.86 -89.87 1420.07 -89.33 1433.28 -88.39 1446.49 -87.08 1459.7 -85.47 1472.92 -83.62 1486.13 -81.62 1499.34 -79.54 1512.55 -77.48 1525.76 -75.54 1538.98 -73.78 1552.19 -72.3 1549.51 -57.3 1549.35 -42.3 1551.72 -27.3 1556.23 -12.3 1562.1 2.69 1568.34 17.69 1573.86 32.69 1577.73 47.69 1579.28 62.69 1578.25 77.69 1574.82 92.69 1569.57 107.69 1563.4 122.69 1557.36 137.69 1552.5 152.69 1549.64 167.69 1549.26 182.69 1551.45 197.69 1555.81 212.69 1561.61 227.69 1567.85 242.69 1573.47 257.69 1577.5 272.69 1579.25 287.69 1578.43 302.69 1575.17 317.69 1570.03 332.69 1563.9 347.69 1557.81 362.69 1552.82 377.69 1549.78 392.69 1549.2 407.69 1551.18 422.69 1555.4 437.69 1561.12 452.69 1567.36 467.69 1573.07 482.69 1577.25 497.69 1579.2 512.69 1578.59 527.69 1575.51 542.69 1570.49 557.69 1564.4 572.69 1558.27 587.69 1553.16 602.69 1549.93 617.69 1549.15 632.69 1550.94 647.69 1555 662.69 1560.63 677.69 1566.87 692.69 1572.66 707.69 1576.99 722.69 1579.14 737.69 1578.73 752.69 1575.83 767.69 1570.94 782.69 1564.9 797.69 1558.74 812.69 1553.51 827.69 1550.1 842.69 1549.11 857.69 1546.04 879.45 1528.13 884.45 1514.9 882.51 1501.66 880.45 1488.42 878.37 1475.19 876.37 1461.95 874.52 1448.72 872.91 1435.48 871.6 1422.24 870.66 1409.01 870.12 1395.77 870.01 1382.54 870.33 1369.3 871.06 1356.06 872.19 1342.83 873.65 1329.59 875.38 1316.36 877.32 1303.12 879.37 1289.88 881.45 1276.65 883.46 1263.41 885.33 1250.18 886.96 1236.94 888.29 1223.7 889.27 1210.47 889.84 1197.23 889.99 1184 889.71 1170.76 889 1157.53 887.91 1144.29 886.47 1131.05 884.76 1117.82 882.83 1104.58 880.79 1091.35 878.71 1078.11 876.69 1064.87 874.81 1051.64 873.15 1038.4 871.79 1025.17 870.79 1011.93 870.18 998.69 870 985.46 870.25 972.22 870.92 958.99 871.98 945.75 873.39 932.51 875.08 919.28 876.99 906.04 879.03 892.81 881.11 879.57 883.14 866.33 885.03 853.1 886.71 839.86 888.1 826.63 889.14 813.39 889.78 800.16 889.99 786.92 889.78 773.68 889.14 760.45 888.11 747.21 886.73 733.98 885.05 720.74 883.16 707.5 881.13 694.27 879.05 681.03 877.01 667.8 875.1 654.56 873.41 641.32 871.99 628.09 870.93 614.85 870.25 601.62 870 588.38 870.18 575.14 870.78 561.91 871.78 548.67 873.14 535.44 874.79 522.2 876.67 508.97 878.69 495.73 880.77 482.49 882.81 469.26 884.74 456.02 886.45 442.79 887.89 429.55 888.99 416.31 889.7 403.08 889.99 389.84 889.85 376.61 889.28 363.37 888.31 350.13 886.98 336.9 885.35 323.66 883.48 310.43 881.47 297.19 879.39 283.96 877.34 270.72 875.41 257.48 873.67 244.25 872.2 231.01 871.08 217.78 870.33 204.54 870.01 191.3 870.12 178.07 870.65 164.83 871.59 151.6 872.89 138.36 874.5 125.13 876.35 111.89 878.35 98.65 880.43 85.42 882.48 72.18 884.43 58.95 886.19 45.71 887.68 32.47 888.84 19.24 889.61 6 889.97 -7.22 889.9 -20.46 889.4 -33.69 888.49 -46.93 887.22 -60.17 885.63 -73.4 883.8 -86.64 881.81 -99.87 879.73 -113.11 877.67 -126.35 875.71 -139.58 873.94 -138.52 858.94 -138.09 843.94 -138.36 828.94 -139.28 813.94 -140.7 798.94 -142.38 783.94 -144.02 768.94 -145.34 753.94 -146.13 738.94 -146.24 723.94 -145.66 708.94 -144.48 693.94 -142.91 678.94 -141.22 663.94 -139.69 648.94 -138.59 633.94 -138.1 618.94 -138.31 603.94 -139.19 588.94 -140.58 573.94 -142.24 558.94 -143.89 543.94 -145.26 528.94 -146.09 513.94 -146.26 498.94 -145.73 483.94 -144.59 468.94 -143.04 453.94 -141.35 438.94 -139.8 423.94 -138.65 408.94 -138.11 393.94 -138.27 378.94 -139.1 363.94 -140.45 348.94 -142.1 333.94 -143.77 318.94 -145.16 303.94 -146.05 288.94 -146.27 273.94 -145.8 258.94 -144.7 243.94 -143.18 228.94 -141.48 213.94 -139.91 198.94 -138.72 183.94 -138.13 168.94 -138.23 153.94 -139.01 138.94 -140.33 123.94 -141.97 108.94 -143.64 93.94 -145.07 78.94 -146 63.94 -146.28 48.94 -145.86 33.94 -144.81 18.94 -143.31 3.94 -141.62 -11.05 -140.02 -26.05 -138.8 -41.05 -138.15 -56.05 -138.2 -71.05 -138.93 -86.05" fill="url(#uuunion-grad)"></path><path d="M-138.94 -86.06Q-138.21 -71.06 -138.16 -56.06 -138.81 -41.06 -140.03 -26.06 -141.63 -11.06 -143.32 3.93 -144.82 18.93 -145.87 33.93 -146.29 48.93 -146.01 63.93 -145.08 78.93 -143.65 93.93 -141.98 108.93 -140.34 123.93 -139.02 138.93 -138.24 153.93 -138.14 168.93 -138.73 183.93 -139.92 198.93 -141.49 213.93 -143.19 228.93 -144.71 243.93 -145.81 258.93 -146.28 273.93 -146.06 288.93 -145.17 303.93 -143.78 318.93 -142.11 333.93 -140.46 348.93 -139.11 363.93 -138.28 378.93 -138.12 393.93 -129.34 395.09 -120.55 396.35 -111.76 397.67 -102.97 399.04 -94.18 400.43 -85.39 401.81 -76.61 403.15 -67.82 404.43 -59.03 405.63 -50.24 406.72 -41.45 407.68 -32.67 408.49 -23.88 409.14 -15.09 409.61 1.51 409.97 4.44 409.99 15.43 406.66 26.4 403.04 37.35 399.14 48.28 394.98 59.21 390.6 70.14 386.04 81.05 381.33 91.97 376.52 102.89 371.67 113.82 366.82 124.75 362.03 135.7 357.35 146.66 352.82 157.63 348.49 168.62 344.39 179.63 340.56 190.65 337 201.7 333.75 212.77 330.79 223.86 328.12 234.97 325.74 246.11 323.62 257.26 321.72 268.44 320.02 279.63 318.46 290.84 317.01 302.06 315.61 313.3 314.21 324.55 312.76 335.81 311.2 347.07 309.5 358.33 307.61 369.6 305.49 380.86 303.11 392.11 300.45 403.36 297.49 414.59 294.24 425.81 290.69 437.01 286.86 448.19 282.76 459.35 278.43 470.48 273.91 481.59 269.23 492.66 264.44 503.71 259.6 514.72 254.74 525.7 249.94 536.64 245.22 547.56 240.65 558.44 236.27 569.29 232.11 580.1 228.21 590.89 224.58 601.65 221.25 612.38 218.22 623.09 215.48 633.78 213.03 644.45 210.85 655.1 208.9 665.75 207.15 676.39 205.56 687.03 204.09 697.67 202.68 708.32 201.28 718.98 199.85 729.66 198.33 740.35 196.67 751.08 194.82 761.83 192.76 772.61 190.45 783.44 187.86 794.3 184.98 805.21 181.8 816.17 178.32 827.18 174.56 838.24 170.52 849.36 166.25 860.54 161.77 871.78 157.13 883.07 152.36 894.43 147.52 905.84 142.67 917.31 137.84 928.84 133.1 940.43 128.5 952.06 124.06 963.75 119.85 975.48 115.88 987.25 112.18 999.06 108.77 1010.9 105.67 1022.76 102.86 1034.65 100.34 1046.55 98.09 1058.46 96.09 1070.37 94.29 1082.28 92.67 1094.17 91.17 1106.05 89.75 1117.9 88.36 1129.71 86.94 1141.49 85.44 1153.22 83.82 1164.9 82.03 1176.51 80.02 1188.07 77.77 1199.56 75.26 1210.97 72.45 1222.3 69.34 1233.56 65.94 1244.72 62.24 1255.8 58.27 1266.8 54.06 1277.7 49.62 1288.51 45.02 1299.23 40.27 1309.86 35.45 1320.4 30.6 1330.86 25.76 1341.24 20.99 1351.55 16.35 1361.78 11.87 1371.94 7.59 1382.04 3.56 1392.09 -0.2 1402.1 -3.67 1412.06 -6.86 1422 -9.74 1415.69 -27.24 1410.84 -44.74 1408.58 -62.24 1409.43 -79.74 1413.19 -97.24 1418.98 -114.74 1425.48 -132.24 1431.17 -149.74 1418.76 -149.99 1406.36 -149.87 1393.95 -149.39 1381.54 -148.56 1369.14 -147.42 1356.73 -146 1344.32 -144.36 1331.92 -142.56 1319.51 -140.66 1307.1 -138.74 1294.7 -136.87 1282.29 -135.11 1269.88 -133.53 1257.48 -132.19 1245.07 -131.14 1232.66 -130.42 1220.26 -130.04 1207.85 -130.04 1195.44 -130.4 1183.04 -131.12 1170.63 -132.16 1158.22 -133.5 1145.82 -135.07 1133.41 -136.82 1121 -138.69 1108.6 -140.61 1096.19 -142.51 1083.78 -144.32 1071.38 -145.96 1058.97 -147.38 1046.56 -148.54 1034.16 -149.37 1021.75 -149.86 1009.34 -149.99 996.94 -149.75 984.53 -149.15 972.12 -148.21 959.72 -146.96 947.31 -145.46 934.9 -143.76 922.5 -141.92 910.09 -140.01 897.68 -138.1 885.28 -136.26 872.87 -134.55 860.46 -133.05 848.06 -131.8 835.65 -130.86 823.24 -130.25 810.84 -130 798.43 -130.12 786.02 -130.61 773.62 -131.44 761.21 -132.59 748.8 -134.01 736.4 -135.65 723.99 -137.45 711.58 -139.35 699.18 -141.27 686.77 -143.14 674.36 -144.9 661.96 -146.47 649.55 -147.81 637.14 -148.86 624.74 -149.58 612.33 -149.95 599.92 -149.95 587.52 -149.58 575.11 -148.86 562.7 -147.82 550.3 -146.48 537.89 -144.9 525.48 -143.15 513.08 -141.28 500.67 -139.36 488.26 -137.46 475.86 -135.66 463.45 -134.01 451.04 -132.59 438.64 -131.44 426.23 -130.61 413.82 -130.12 401.42 -130 389.01 -130.25 376.6 -130.85 364.2 -131.79 351.79 -133.04 339.38 -134.54 326.98 -136.25 314.57 -138.09 302.16 -140 289.76 -141.91 277.35 -143.75 264.95 -145.46 252.54 -146.96 240.13 -148.2 227.73 -149.14 215.32 -149.75 202.91 -149.99 190.51 -149.87 178.1 -149.38 165.69 -148.54 153.29 -147.39 140.88 -145.97 128.47 -144.32 116.07 -142.52 103.66 -140.62 91.25 -138.7 78.85 -136.83 66.44 -135.08 54.03 -133.5 41.63 -132.17 29.22 -131.12 16.81 -130.4 4.41 -130.04 -7.99 -130.04 -20.4 -130.41 -32.8 -131.14 -45.21 -132.19 -57.62 -133.53 -70.02 -135.1 -82.43 -136.86 -94.84 -138.73 -107.24 -140.65 -119.65 -142.55 -132.06 -144.35 -148.44 -139.04 -147.74 -116.76 -143.15 -101.42 -138.94 -86.06" fill="url(#uuunion-grad2)" filter="url(#uuunion-blur)"></path><path d="M1428.89 310.25Q1437.83 310.66 1446.76 311.24 1455.7 312 1464.64 312.91 1473.58 313.95 1482.52 315.11 1491.46 316.37 1500.4 317.69 1509.33 319.06 1518.27 320.45 1527.21 321.83 1536.15 323.17 1545.09 324.45 1554.03 325.65 1562.97 326.74 1571.9 327.69 1564.95 345.19 1557.81 362.69 1552.16 380.19 1549.29 397.69 1549.88 415.19 1553.78 432.69 1560.1 450.19 1567.36 467.69 1573.89 485.19 1578.18 502.69 1579.22 520.19 1576.78 537.69 1571.43 555.19 1564.4 572.69 1557.32 590.19 1551.84 607.69 1549.22 625.19 1550.07 642.69 1554.19 660.19 1560.63 677.69 1567.9 695.19 1574.31 712.69 1578.37 730.19 1579.16 747.69 1576.47 765.19 1570.94 782.69 1563.85 800.19 1556.84 817.69 1551.53 835.19 1549.16 852.69 1550.27 870.19 1554.6 887.69 1542.46 886.34 1530.32 884.76 1518.18 883 1506.04 881.14 1493.9 879.23 1481.76 877.35 1469.62 875.57 1457.48 873.94 1445.34 872.54 1433.2 871.41 1421.06 870.59 1408.92 870.12 1396.77 870 1384.63 870.25 1372.49 870.85 1360.35 871.78 1348.21 873.02 1336.07 874.51 1323.93 876.19 1311.79 878.02 1299.65 879.92 1287.51 881.82 1275.37 883.65 1263.23 885.35 1251.09 886.86 1238.94 888.11 1226.8 889.07 1214.66 889.71 1202.52 889.98 1190.38 889.9 1178.24 889.45 1166.1 888.66 1153.96 887.55 1141.82 886.17 1129.68 884.56 1117.54 882.79 1105.4 880.92 1093.26 879.01 1081.12 877.14 1068.97 875.37 1056.83 873.77 1044.69 872.4 1032.55 871.3 1020.41 870.52 1008.27 870.09 996.13 870.01 983.99 870.3 971.85 870.94 959.71 871.91 947.57 873.18 935.43 874.69 923.29 876.4 911.14 878.23 899 880.14 886.86 882.03 874.72 883.85 862.58 885.54 850.44 887.02 838.3 888.24 826.16 889.16 814.02 889.76 801.88 889.99 789.74 889.86 777.6 889.38 765.46 888.55 753.32 887.41 741.17 886 729.03 884.37 716.89 882.58 704.75 880.7 692.61 878.79 680.47 876.93 668.33 875.18 656.19 873.6 644.05 872.26 631.91 871.2 619.77 870.45 607.63 870.06 595.49 870.03 583.34 870.36 571.2 871.04 559.06 872.04 546.92 873.34 534.78 874.88 522.64 876.6 510.5 878.45 498.36 880.35 486.22 882.25 474.08 884.06 461.94 885.72 449.8 887.17 437.66 888.36 425.52 889.25 413.37 889.8 401.23 889.99 389.09 889.82 376.95 889.3 364.81 888.43 352.67 887.26 340.53 885.82 328.39 884.17 316.25 882.37 304.11 880.48 291.97 878.58 279.83 876.72 267.69 874.99 255.54 873.43 243.4 872.12 231.26 871.09 219.12 870.39 206.98 870.04 194.84 870.05 182.7 870.42 170.56 871.14 158.42 872.18 146.28 873.5 134.14 875.07 122 876.81 109.86 878.67 97.72 880.57 85.57 882.46 73.43 884.25 61.29 885.9 49.15 887.32 37.01 888.48 24.87 889.33 6.9 884.92 1.37 869.99 1.5 859.99 1.44 849.99 1.19 839.99 0.77 829.99 0.14 814.99 0.57 810 12.63 803.55 24.74 796.74 36.9 789.58 49.13 782.1 61.43 774.34 73.8 766.38 86.23 758.27 98.74 750.08 111.3 741.89 123.9 733.76 136.55 725.78 149.22 718.01 161.89 710.51 174.57 703.31 187.22 696.47 199.86 690 212.45 683.9 225 678.19 237.51 672.82 249.96 667.78 262.37 663.01 274.74 658.46 287.07 654.06 299.37 649.75 311.66 645.44 323.94 641.07 336.24 636.57 348.56 631.86 360.92 626.89 373.33 621.61 385.81 615.99 398.36 609.99 410.98 603.61 423.68 596.86 436.47 589.76 449.33 582.33 462.25 574.62 475.23 566.68 488.25 558.59 501.3 550.41 514.35 542.21 527.39 534.07 540.38 526.07 553.32 518.25 566.18 510.7 578.95 503.45 591.59 496.54 604.12 490.01 616.5 483.85 628.75 478.07 640.85 472.65 652.82 467.55 664.67 462.74 676.41 458.16 688.06 453.74 699.64 449.41 711.18 445.11 722.72 440.76 734.28 436.28 745.9 431.61 757.61 426.69 769.43 421.47 781.4 415.9 793.54 409.97 803.12 408.71 812.72 407.21 822.32 405.5 831.93 403.57 841.55 401.44 851.18 399.13 860.82 396.68 870.47 394.09 880.12 391.42 889.79 388.68 899.47 385.91 909.16 383.15 918.86 380.44 928.57 377.8 938.29 375.27 948.03 372.87 957.78 370.64 967.54 368.6 977.31 366.76 987.1 365.14 996.9 363.75 1006.71 362.58 1016.53 361.65 1026.37 360.93 1036.22 360.43 1046.09 360.11 1055.97 359.97 1065.86 359.97 1075.76 360.08 1085.68 360.28 1095.61 360.53 1105.55 360.8 1115.51 361.05 1125.48 361.24 1135.46 361.35 1145.46 361.35 1155.47 361.19 1165.49 360.86 1175.52 360.35 1185.56 359.62 1195.61 358.67 1205.68 357.49 1215.75 356.08 1225.83 354.45 1235.93 352.6 1246.03 350.54 1256.14 348.3 1266.26 345.9 1276.39 343.36 1286.53 340.71 1296.67 337.99 1306.82 335.23 1316.97 332.47 1327.13 329.73 1337.3 327.06 1347.47 324.49 1357.64 322.04 1367.81 319.74 1377.99 317.63 1388.17 315.71 1398.35 314 1408.53 312.52 1418.71 311.27 1428.89 310.25" fill="url(#uuunion-grad3)" filter="url(#uuunion-blur2)"></path></svg>